<?xml version="1.0" encoding="UTF-8"?>
<svg width="24" height="24" viewBox="0 0 24 24" xmlns="http://www.w3.org/2000/svg">
  <defs>
    <radialGradient id="starGradient" cx="30%" cy="30%" r="70%">
      <stop offset="0%" style="stop-color:#FFF59D;stop-opacity:1" />
      <stop offset="50%" style="stop-color:#FFD54F;stop-opacity:1" />
      <stop offset="100%" style="stop-color:#FF8F00;stop-opacity:1" />
    </radialGradient>
    
    <linearGradient id="sparkleGradient" x1="0%" y1="0%" x2="100%" y2="100%">
      <stop offset="0%" style="stop-color:#FFEB3B;stop-opacity:1" />
      <stop offset="100%" style="stop-color:#FFC107;stop-opacity:1" />
    </linearGradient>
    
    <radialGradient id="glowGradient" cx="50%" cy="50%" r="60%">
      <stop offset="0%" style="stop-color:#FFD700;stop-opacity:0.6" />
      <stop offset="100%" style="stop-color:#FFD700;stop-opacity:0" />
    </radialGradient>
    
    <linearGradient id="rayGradient" x1="0%" y1="0%" x2="100%" y2="100%">
      <stop offset="0%" style="stop-color:#FFFF8D;stop-opacity:1" />
      <stop offset="100%" style="stop-color:#FFD54F;stop-opacity:0.3" />
    </linearGradient>
  </defs>
  
  <!-- 光环效果 -->
  <circle cx="12" cy="12" r="10" fill="url(#glowGradient)">
    <animate attributeName="r" values="8;12;8" dur="3s" repeatCount="indefinite"/>
    <animate attributeName="opacity" values="0.6;0.2;0.6" dur="3s" repeatCount="indefinite"/>
  </circle>
  
  <!-- 主星星 -->
  <path d="M 12 4 
           L 14.5 9 
           L 20 9.5 
           L 16 13.5 
           L 17 19 
           L 12 16.5 
           L 7 19 
           L 8 13.5 
           L 4 9.5 
           L 9.5 9 
           L 12 4 Z" 
        fill="url(#starGradient)" 
        stroke="#FF8F00" 
        stroke-width="0.5">
    <animate attributeName="fill" 
             values="url(#starGradient);#FFFF8D;url(#starGradient)" 
             dur="2s" 
             repeatCount="indefinite"/>
    <animateTransform attributeName="transform" 
                      type="scale" 
                      values="1;1.05;1" 
                      dur="2s" 
                      repeatCount="indefinite"/>
  </path>
  
  <!-- 星星内部装饰 -->
  <path d="M 12 7 
           L 13.5 10 
           L 17 10.3 
           L 14.5 12.8 
           L 15.2 16.2 
           L 12 14.5 
           L 8.8 16.2 
           L 9.5 12.8 
           L 7 10.3 
           L 10.5 10 
           L 12 7 Z" 
        fill="#FFEB3B" 
        opacity="0.8">
    <animate attributeName="opacity" values="0.8;0.5;0.8" dur="2s" repeatCount="indefinite"/>
  </path>
  
  <!-- 中心亮点 -->
  <circle cx="12" cy="12" r="2" fill="#FFF59D">
    <animate attributeName="r" values="2;2.5;2" dur="1.5s" repeatCount="indefinite"/>
    <animate attributeName="fill" values="#FFF59D;#FFFFFF;#FFF59D" dur="1.5s" repeatCount="indefinite"/>
  </circle>
  
  <!-- 光芒 -->
  <g opacity="0.8">
    <!-- 上光芒 -->
    <rect x="11.5" y="1" width="1" height="4" rx="0.5" fill="url(#rayGradient)">
      <animate attributeName="height" values="4;5;4" dur="2s" repeatCount="indefinite"/>
      <animate attributeName="y" values="1;0.5;1" dur="2s" repeatCount="indefinite"/>
    </rect>
    
    <!-- 下光芒 -->
    <rect x="11.5" y="19" width="1" height="4" rx="0.5" fill="url(#rayGradient)">
      <animate attributeName="height" values="4;5;4" dur="2s" begin="0.3s" repeatCount="indefinite"/>
    </rect>
    
    <!-- 左光芒 -->
    <rect x="1" y="11.5" width="4" height="1" ry="0.5" fill="url(#rayGradient)">
      <animate attributeName="width" values="4;5;4" dur="2s" begin="0.6s" repeatCount="indefinite"/>
      <animate attributeName="x" values="1;0.5;1" dur="2s" begin="0.6s" repeatCount="indefinite"/>
    </rect>
    
    <!-- 右光芒 -->
    <rect x="19" y="11.5" width="4" height="1" ry="0.5" fill="url(#rayGradient)">
      <animate attributeName="width" values="4;5;4" dur="2s" begin="0.9s" repeatCount="indefinite"/>
    </rect>
    
    <!-- 对角光芒 -->
    <rect x="18" y="4.5" width="3" height="0.8" ry="0.4" fill="url(#rayGradient)" 
          transform="rotate(45 19.5 5)">
      <animate attributeName="width" values="3;4;3" dur="2s" begin="1.2s" repeatCount="indefinite"/>
    </rect>
    
    <rect x="3" y="4.5" width="3" height="0.8" ry="0.4" fill="url(#rayGradient)" 
          transform="rotate(-45 4.5 5)">
      <animate attributeName="width" values="3;4;3" dur="2s" begin="1.5s" repeatCount="indefinite"/>
    </rect>
    
    <rect x="18" y="18.5" width="3" height="0.8" ry="0.4" fill="url(#rayGradient)" 
          transform="rotate(-45 19.5 19)">
      <animate attributeName="width" values="3;4;3" dur="2s" begin="1.8s" repeatCount="indefinite"/>
    </rect>
    
    <rect x="3" y="18.5" width="3" height="0.8" ry="0.4" fill="url(#rayGradient)" 
          transform="rotate(45 4.5 19)">
      <animate attributeName="width" values="3;4;3" dur="2s" begin="2.1s" repeatCount="indefinite"/>
    </rect>
  </g>
  
  <!-- 小星星装饰 -->
  <g opacity="0.9">
    <path d="M 6 6 L 6.8 7.2 L 8.2 7.2 L 7.2 8 L 7.6 9.4 L 6 8.6 L 4.4 9.4 L 4.8 8 L 3.8 7.2 L 5.2 7.2 Z" 
          fill="url(#sparkleGradient)">
      <animate attributeName="opacity" values="0;1;0" dur="2s" repeatCount="indefinite"/>
      <animateTransform attributeName="transform" 
                        type="rotate" 
                        values="0 6 7.8;360 6 7.8" 
                        dur="4s" 
                        repeatCount="indefinite"/>
    </path>
    
    <path d="M 18 6 L 18.8 7.2 L 20.2 7.2 L 19.2 8 L 19.6 9.4 L 18 8.6 L 16.4 9.4 L 16.8 8 L 15.8 7.2 L 17.2 7.2 Z" 
          fill="#FFD54F">
      <animate attributeName="opacity" values="0;1;0" dur="2.3s" begin="0.5s" repeatCount="indefinite"/>
      <animateTransform attributeName="transform" 
                        type="rotate" 
                        values="0 18 7.8;-360 18 7.8" 
                        dur="5s" 
                        repeatCount="indefinite"/>
    </path>
    
    <path d="M 6 18 L 6.8 19.2 L 8.2 19.2 L 7.2 20 L 7.6 21.4 L 6 20.6 L 4.4 21.4 L 4.8 20 L 3.8 19.2 L 5.2 19.2 Z" 
          fill="#FF8F00">
      <animate attributeName="opacity" values="0;1;0" dur="2.5s" begin="1s" repeatCount="indefinite"/>
      <animateTransform attributeName="transform" 
                        type="rotate" 
                        values="0 6 19.8;360 6 19.8" 
                        dur="3s" 
                        repeatCount="indefinite"/>
    </path>
    
    <path d="M 18 18 L 18.8 19.2 L 20.2 19.2 L 19.2 20 L 19.6 21.4 L 18 20.6 L 16.4 21.4 L 16.8 20 L 15.8 19.2 L 17.2 19.2 Z" 
          fill="#FFEB3B">
      <animate attributeName="opacity" values="0;1;0" dur="2.2s" begin="1.5s" repeatCount="indefinite"/>
      <animateTransform attributeName="transform" 
                        type="rotate" 
                        values="0 18 19.8;-360 18 19.8" 
                        dur="4s" 
                        repeatCount="indefinite"/>
    </path>
  </g>
  
  <!-- 闪烁粒子 -->
  <g opacity="0.7">
    <circle cx="9" cy="9" r="0.5" fill="#FFFF8D">
      <animate attributeName="opacity" values="0;1;0" dur="1.5s" repeatCount="indefinite"/>
      <animate attributeName="r" values="0.3;0.8;0.3" dur="1.5s" repeatCount="indefinite"/>
    </circle>
    
    <circle cx="15" cy="9" r="0.4" fill="#FFD700">
      <animate attributeName="opacity" values="0;1;0" dur="1.8s" begin="0.3s" repeatCount="indefinite"/>
      <animate attributeName="r" values="0.2;0.7;0.2" dur="1.8s" begin="0.3s" repeatCount="indefinite"/>
    </circle>
    
    <circle cx="9" cy="15" r="0.6" fill="#FFC107">
      <animate attributeName="opacity" values="0;1;0" dur="2s" begin="0.6s" repeatCount="indefinite"/>
      <animate attributeName="r" values="0.3;0.9;0.3" dur="2s" begin="0.6s" repeatCount="indefinite"/>
    </circle>
    
    <circle cx="15" cy="15" r="0.3" fill="#FFEB3B">
      <animate attributeName="opacity" values="0;1;0" dur="1.7s" begin="0.9s" repeatCount="indefinite"/>
      <animate attributeName="r" values="0.1;0.6;0.1" dur="1.7s" begin="0.9s" repeatCount="indefinite"/>
    </circle>
  </g>
</svg> 