<svg width="32" height="32" viewBox="0 0 32 32" xmlns="http://www.w3.org/2000/svg">
  <defs>
    <linearGradient id="bowlGrad" x1="0%" y1="0%" x2="100%" y2="100%">
      <stop offset="0%" style="stop-color:#FF4081;stop-opacity:1" />
      <stop offset="100%" style="stop-color:#E91E63;stop-opacity:1" />
    </linearGradient>
    <linearGradient id="riceGrad" x1="0%" y1="0%" x2="100%" y2="100%">
      <stop offset="0%" style="stop-color:#FFFFFF;stop-opacity:1" />
      <stop offset="100%" style="stop-color:#F5F5F5;stop-opacity:1" />
    </linearGradient>
    <linearGradient id="vegGrad" x1="0%" y1="0%" x2="100%" y2="100%">
      <stop offset="0%" style="stop-color:#4CAF50;stop-opacity:1" />
      <stop offset="100%" style="stop-color:#2E7D32;stop-opacity:1" />
    </linearGradient>
    <radialGradient id="meatGrad" cx="50%" cy="50%" r="50%">
      <stop offset="0%" style="stop-color:#FF7043;stop-opacity:1" />
      <stop offset="100%" style="stop-color:#D84315;stop-opacity:1" />
    </radialGradient>
    <filter id="glow">
      <feGaussianBlur stdDeviation="1" result="coloredBlur"/>
      <feMerge> 
        <feMergeNode in="coloredBlur"/>
        <feMergeNode in="SourceGraphic"/>
      </feMerge>
    </filter>
  </defs>
  
  <!-- 主碗 -->
  <ellipse cx="16" cy="24" rx="12" ry="6" fill="url(#bowlGrad)" opacity="0.9" filter="url(#glow)">
    <animate attributeName="ry" values="6;6.5;6" dur="3s" repeatCount="indefinite"/>
  </ellipse>
  
  <!-- 碗边 -->
  <ellipse cx="16" cy="21" rx="12" ry="2" fill="none" stroke="url(#bowlGrad)" stroke-width="2" opacity="0.7"/>
  
  <!-- 米饭 -->
  <ellipse cx="16" cy="20" rx="10" ry="5" fill="url(#riceGrad)" opacity="0.9">
    <animate attributeName="ry" values="5;5.3;5" dur="2.5s" repeatCount="indefinite"/>
  </ellipse>
  
  <!-- 米粒细节 -->
  <ellipse cx="12" cy="19" rx="0.5" ry="0.8" fill="#F0F0F0" opacity="0.8">
    <animate attributeName="opacity" values="0.8;1;0.8" dur="2s" repeatCount="indefinite"/>
  </ellipse>
  <ellipse cx="18" cy="18" rx="0.4" ry="0.7" fill="#F0F0F0" opacity="0.8">
    <animate attributeName="opacity" values="0.8;1;0.8" dur="2s" repeatCount="indefinite" begin="0.3s"/>
  </ellipse>
  <ellipse cx="15" cy="21" rx="0.6" ry="0.9" fill="#F0F0F0" opacity="0.8">
    <animate attributeName="opacity" values="0.8;1;0.8" dur="2s" repeatCount="indefinite" begin="0.6s"/>
  </ellipse>
  
  <!-- 配菜1 - 青菜 -->
  <ellipse cx="11" cy="17" rx="2" ry="3" fill="url(#vegGrad)" opacity="0.8">
    <animate attributeName="rx" values="2;2.2;2" dur="3s" repeatCount="indefinite"/>
  </ellipse>
  <path d="M 10 16 Q 11 14 12 16" stroke="#388E3C" stroke-width="0.8" fill="none" opacity="0.7"/>
  
  <!-- 配菜2 - 肉类 -->
  <circle cx="21" cy="17" r="2" fill="url(#meatGrad)" opacity="0.8">
    <animate attributeName="r" values="2;2.2;2" dur="2.5s" repeatCount="indefinite"/>
  </circle>
  <ellipse cx="21.5" cy="16.5" rx="0.5" ry="0.3" fill="#FF8A65" opacity="0.7"/>
  
  <!-- 配菜3 - 胡萝卜丝 -->
  <rect x="14" y="15" width="4" height="1" rx="0.5" fill="#FF9800" opacity="0.7" transform="rotate(15 16 15.5)">
    <animate attributeName="opacity" values="0.7;0.9;0.7" dur="2s" repeatCount="indefinite"/>
  </rect>
  <rect x="15" y="16.5" width="3" height="0.8" rx="0.4" fill="#FF9800" opacity="0.7" transform="rotate(-10 16.5 16.9)">
    <animate attributeName="opacity" values="0.7;0.9;0.7" dur="2s" repeatCount="indefinite" begin="0.5s"/>
  </rect>
  
  <!-- 筷子 -->
  <rect x="25" y="8" width="1" height="12" rx="0.5" fill="#D2691E" opacity="0.8" transform="rotate(30 25.5 14)">
    <animate attributeName="opacity" values="0.8;1;0.8" dur="3s" repeatCount="indefinite"/>
  </rect>
  <rect x="26.5" y="8" width="1" height="12" rx="0.5" fill="#D2691E" opacity="0.8" transform="rotate(35 27 14)">
    <animate attributeName="opacity" values="0.8;1;0.8" dur="3s" repeatCount="indefinite" begin="0.2s"/>
  </rect>
  
  <!-- 热气 -->
  <path d="M 12 12 Q 12.5 10 12 8" stroke="#E0E0E0" stroke-width="0.8" fill="none" opacity="0.6">
    <animate attributeName="opacity" values="0.6;0.3;0.6" dur="2s" repeatCount="indefinite"/>
  </path>
  <path d="M 16 12 Q 16.5 10 16 8" stroke="#E0E0E0" stroke-width="0.8" fill="none" opacity="0.6">
    <animate attributeName="opacity" values="0.6;0.3;0.6" dur="2s" repeatCount="indefinite" begin="0.7s"/>
  </path>
  <path d="M 20 12 Q 20.5 10 20 8" stroke="#E0E0E0" stroke-width="0.8" fill="none" opacity="0.6">
    <animate attributeName="opacity" values="0.6;0.3;0.6" dur="2s" repeatCount="indefinite" begin="1.3s"/>
  </path>
  
  <!-- 装饰星星 -->
  <polygon points="8,6 8.5,7.5 10,8 8.5,8.5 8,10 7.5,8.5 6,8 7.5,7.5" fill="#F8BBD0" opacity="0.7">
    <animate attributeName="opacity" values="0.7;1;0.7" dur="2s" repeatCount="indefinite"/>
    <animateTransform attributeName="transform" type="rotate" values="0 8 8;360 8 8" dur="8s" repeatCount="indefinite"/>
  </polygon>
</svg> 