<svg width="32" height="32" viewBox="0 0 32 32" xmlns="http://www.w3.org/2000/svg">
  <defs>
    <linearGradient id="breadGrad" x1="0%" y1="0%" x2="100%" y2="100%">
      <stop offset="0%" style="stop-color:#F4A261;stop-opacity:1" />
      <stop offset="100%" style="stop-color:#E76F51;stop-opacity:1" />
    </linearGradient>
    <linearGradient id="eggWhiteGrad" x1="0%" y1="0%" x2="100%" y2="100%">
      <stop offset="0%" style="stop-color:#FFFFFF;stop-opacity:1" />
      <stop offset="100%" style="stop-color:#F8F8F8;stop-opacity:1" />
    </linearGradient>
    <radialGradient id="eggYolkGrad" cx="50%" cy="50%" r="50%">
      <stop offset="0%" style="stop-color:#FFD60A;stop-opacity:1" />
      <stop offset="100%" style="stop-color:#FF8500;stop-opacity:1" />
    </radialGradient>
    <linearGradient id="milkGrad" x1="0%" y1="0%" x2="100%" y2="100%">
      <stop offset="0%" style="stop-color:#FF4081;stop-opacity:1" />
      <stop offset="100%" style="stop-color:#E91E63;stop-opacity:1" />
    </linearGradient>
    <filter id="glow">
      <feGaussianBlur stdDeviation="1" result="coloredBlur"/>
      <feMerge> 
        <feMergeNode in="coloredBlur"/>
        <feMergeNode in="SourceGraphic"/>
      </feMerge>
    </filter>
  </defs>
  
  <!-- 面包片 -->
  <ellipse cx="10" cy="20" rx="7" ry="5" fill="url(#breadGrad)" opacity="0.9" filter="url(#glow)">
    <animate attributeName="ry" values="5;5.2;5" dur="3s" repeatCount="indefinite"/>
  </ellipse>
  
  <!-- 面包纹理 -->
  <ellipse cx="7" cy="19" rx="1" ry="0.5" fill="#E76F51" opacity="0.6"/>
  <ellipse cx="11" cy="21" rx="1.2" ry="0.6" fill="#E76F51" opacity="0.6"/>
  <ellipse cx="13" cy="18" rx="0.8" ry="0.4" fill="#E76F51" opacity="0.6"/>
  
  <!-- 煎蛋蛋白 -->
  <path d="M 18 14 Q 15 12 16 16 Q 19 15 22 17 Q 25 14 23 18 Q 26 19 24 21 Q 21 23 19 20 Q 16 22 15 19 Q 13 17 16 16 Q 17 14 18 14 Z" 
        fill="url(#eggWhiteGrad)" opacity="0.9">
    <animate attributeName="opacity" values="0.9;1;0.9" dur="2s" repeatCount="indefinite"/>
  </path>
  
  <!-- 蛋黄 -->
  <circle cx="20" cy="18" r="3" fill="url(#eggYolkGrad)">
    <animate attributeName="r" values="3;3.2;3" dur="2.5s" repeatCount="indefinite"/>
  </circle>
  
  <!-- 蛋黄高光 -->
  <ellipse cx="21" cy="17" rx="0.8" ry="0.6" fill="#FFF" opacity="0.7">
    <animate attributeName="opacity" values="0.7;0.5;0.7" dur="2s" repeatCount="indefinite"/>
  </ellipse>
  
  <!-- 牛奶杯 -->
  <rect x="8" y="6" width="8" height="10" rx="1" fill="url(#milkGrad)" opacity="0.8"/>
  
  <!-- 牛奶 -->
  <rect x="9" y="8" width="6" height="6" rx="0.5" fill="#FFF" opacity="0.9">
    <animate attributeName="height" values="6;6.5;6" dur="3s" repeatCount="indefinite"/>
  </rect>
  
  <!-- 杯子手柄 -->
  <ellipse cx="16.5" cy="11" rx="1.5" ry="2" fill="none" stroke="url(#milkGrad)" stroke-width="1.5" opacity="0.8"/>
  
  <!-- 热气 -->
  <path d="M 10 5 Q 10.5 3 10 1" stroke="#E0E0E0" stroke-width="0.8" fill="none" opacity="0.6">
    <animate attributeName="opacity" values="0.6;0.3;0.6" dur="2s" repeatCount="indefinite"/>
  </path>
  <path d="M 12 5 Q 12.5 3 12 1" stroke="#E0E0E0" stroke-width="0.8" fill="none" opacity="0.6">
    <animate attributeName="opacity" values="0.6;0.3;0.6" dur="2s" repeatCount="indefinite" begin="0.5s"/>
  </path>
  <path d="M 14 5 Q 14.5 3 14 1" stroke="#E0E0E0" stroke-width="0.8" fill="none" opacity="0.6">
    <animate attributeName="opacity" values="0.6;0.3;0.6" dur="2s" repeatCount="indefinite" begin="1s"/>
  </path>
  
  <!-- 爱心装饰 -->
  <path d="M 25 8 C 25 7 26 6 27 6 C 28 6 29 7 29 8 C 29 9 27 11 27 11 C 27 11 25 9 25 8 Z" 
        fill="#F8BBD0" opacity="0.7">
    <animate attributeName="opacity" values="0.7;1;0.7" dur="2s" repeatCount="indefinite"/>
    <animateTransform attributeName="transform" type="rotate" values="0 27 8;5 27 8;0 27 8" dur="3s" repeatCount="indefinite"/>
  </path>
</svg> 