<svg width="32" height="32" viewBox="0 0 32 32" xmlns="http://www.w3.org/2000/svg">
  <defs>
    <linearGradient id="appleGrad" x1="0%" y1="0%" x2="100%" y2="100%">
      <stop offset="0%" style="stop-color:#FF5722;stop-opacity:1" />
      <stop offset="100%" style="stop-color:#D32F2F;stop-opacity:1" />
    </linearGradient>
    <linearGradient id="crackerGrad" x1="0%" y1="0%" x2="100%" y2="100%">
      <stop offset="0%" style="stop-color:#FFC107;stop-opacity:1" />
      <stop offset="100%" style="stop-color:#FF8F00;stop-opacity:1" />
    </linearGradient>
    <linearGradient id="nutGrad" x1="0%" y1="0%" x2="100%" y2="100%">
      <stop offset="0%" style="stop-color:#8D6E63;stop-opacity:1" />
      <stop offset="100%" style="stop-color:#5D4037;stop-opacity:1" />
    </linearGradient>
    <linearGradient id="wrapperGrad" x1="0%" y1="0%" x2="100%" y2="100%">
      <stop offset="0%" style="stop-color:#FF4081;stop-opacity:1" />
      <stop offset="100%" style="stop-color:#E91E63;stop-opacity:1" />
    </linearGradient>
    <filter id="glow">
      <feGaussianBlur stdDeviation="1" result="coloredBlur"/>
      <feMerge> 
        <feMergeNode in="coloredBlur"/>
        <feMergeNode in="SourceGraphic"/>
      </feMerge>
    </filter>
  </defs>
  
  <!-- 苹果 -->
  <circle cx="10" cy="15" r="6" fill="url(#appleGrad)" opacity="0.9" filter="url(#glow)">
    <animate attributeName="r" values="6;6.2;6" dur="3s" repeatCount="indefinite"/>
  </circle>
  
  <!-- 苹果凹陷 -->
  <ellipse cx="10" cy="10" rx="1.5" ry="1" fill="url(#appleGrad)" opacity="0.7"/>
  
  <!-- 苹果茎 -->
  <rect x="9.5" y="8" width="1" height="2" rx="0.5" fill="#4CAF50" opacity="0.8">
    <animate attributeName="height" values="2;2.3;2" dur="2s" repeatCount="indefinite"/>
  </rect>
  
  <!-- 苹果叶子 -->
  <ellipse cx="11.5" cy="9" rx="1.5" ry="1" fill="#66BB6A" opacity="0.8" transform="rotate(30 11.5 9)">
    <animate attributeName="rx" values="1.5;1.7;1.5" dur="2.5s" repeatCount="indefinite"/>
  </ellipse>
  
  <!-- 苹果高光 -->
  <ellipse cx="8" cy="12" rx="1.5" ry="2" fill="#FFCDD2" opacity="0.6">
    <animate attributeName="opacity" values="0.6;0.8;0.6" dur="2s" repeatCount="indefinite"/>
  </ellipse>
  
  <!-- 饼干/薯片 -->
  <ellipse cx="22" cy="12" rx="4" ry="3" fill="url(#crackerGrad)" opacity="0.9">
    <animate attributeName="ry" values="3;3.2;3" dur="2.5s" repeatCount="indefinite"/>
  </ellipse>
  
  <!-- 饼干纹理 -->
  <circle cx="20" cy="11" r="0.3" fill="#FF8F00" opacity="0.7"/>
  <circle cx="22" cy="13" r="0.3" fill="#FF8F00" opacity="0.7"/>
  <circle cx="24" cy="11.5" r="0.3" fill="#FF8F00" opacity="0.7"/>
  <circle cx="21" cy="12.5" r="0.2" fill="#FF8F00" opacity="0.7"/>
  
  <!-- 饼干波浪边 -->
  <path d="M 18 12 Q 19 11 20 12 Q 21 13 22 12 Q 23 11 24 12" 
        stroke="#FF6F00" stroke-width="0.8" fill="none" opacity="0.6"/>
  
  <!-- 坚果1 -->
  <ellipse cx="8" cy="24" rx="2" ry="2.5" fill="url(#nutGrad)" opacity="0.8">
    <animate attributeName="ry" values="2.5;2.7;2.5" dur="2s" repeatCount="indefinite"/>
  </ellipse>
  <path d="M 7 23 Q 8 22 9 23" stroke="#6D4C41" stroke-width="0.5" fill="none" opacity="0.7"/>
  
  <!-- 坚果2 -->
  <circle cx="13" cy="26" r="1.8" fill="url(#nutGrad)" opacity="0.8">
    <animate attributeName="r" values="1.8;2;1.8" dur="2.2s" repeatCount="indefinite"/>
  </circle>
  <circle cx="13.5" cy="25.5" r="0.3" fill="#8D6E63" opacity="0.6"/>
  
  <!-- 包装纸 -->
  <rect x="20" y="22" width="8" height="6" rx="1" fill="url(#wrapperGrad)" opacity="0.8">
    <animate attributeName="height" values="6;6.3;6" dur="3s" repeatCount="indefinite"/>
  </rect>
  
  <!-- 包装纸反光 -->
  <rect x="21" y="23" width="2" height="4" rx="0.3" fill="#FFFFFF" opacity="0.4">
    <animate attributeName="opacity" values="0.4;0.6;0.4" dur="2s" repeatCount="indefinite"/>
  </rect>
  
  <!-- 包装纸标签 -->
  <rect x="22" y="24" width="3" height="1.5" rx="0.2" fill="#FFFFFF" opacity="0.7"/>
  <rect x="22.5" y="24.3" width="2" height="0.3" rx="0.1" fill="url(#wrapperGrad)" opacity="0.6"/>
  <rect x="22.5" y="24.8" width="1.5" height="0.3" rx="0.1" fill="url(#wrapperGrad)" opacity="0.6"/>
  
  <!-- 小星星装饰 -->
  <polygon points="16,4 16.5,5.5 18,6 16.5,6.5 16,8 15.5,6.5 14,6 15.5,5.5" fill="#F8BBD0" opacity="0.7">
    <animate attributeName="opacity" values="0.7;1;0.7" dur="2s" repeatCount="indefinite"/>
    <animateTransform attributeName="transform" type="rotate" values="0 16 6;360 16 6" dur="6s" repeatCount="indefinite"/>
  </polygon>
  
  <polygon points="26,18 26.3,19 27,19.2 26.3,19.4 26,20 25.7,19.4 25,19.2 25.7,19 26,18" fill="#F8BBD0" opacity="0.6">
    <animate attributeName="opacity" values="0.6;0.9;0.6" dur="2.5s" repeatCount="indefinite"/>
    <animateTransform attributeName="transform" type="rotate" values="0 26 19;-360 26 19" dur="8s" repeatCount="indefinite"/>
  </polygon>
  
  <!-- 爱心 -->
  <path d="M 4 8 C 4 7 5 6 6 6 C 7 6 8 7 8 8 C 8 9 6 11 6 11 C 6 11 4 9 4 8 Z" 
        fill="#FF9800" opacity="0.6">
    <animate attributeName="opacity" values="0.6;0.9;0.6" dur="2s" repeatCount="indefinite"/>
    <animateTransform attributeName="transform" type="scale" values="1;1.1;1" dur="2s" repeatCount="indefinite"/>
  </path>
  
  <!-- 闪烁效果 -->
  <circle cx="15" cy="20" r="0.5" fill="#FFF" opacity="0.8">
    <animate attributeName="opacity" values="0.8;0.3;0.8" dur="1.5s" repeatCount="indefinite"/>
    <animate attributeName="r" values="0.5;0.8;0.5" dur="1.5s" repeatCount="indefinite"/>
  </circle>
  
  <circle cx="5" cy="18" r="0.3" fill="#FFF" opacity="0.6">
    <animate attributeName="opacity" values="0.6;0.2;0.6" dur="2s" repeatCount="indefinite" begin="0.5s"/>
  </circle>
</svg> 