<?xml version="1.0" encoding="UTF-8"?>
<svg width="24" height="24" viewBox="0 0 24 24" xmlns="http://www.w3.org/2000/svg">
  <defs>
    <linearGradient id="lockGradient" x1="0%" y1="0%" x2="100%" y2="100%">
      <stop offset="0%" style="stop-color:#E1BEE7;stop-opacity:1" />
      <stop offset="100%" style="stop-color:#9C27B0;stop-opacity:1" />
    </linearGradient>
    
    <linearGradient id="shackleGradient" x1="0%" y1="0%" x2="100%" y2="100%">
      <stop offset="0%" style="stop-color:#BDBDBD;stop-opacity:1" />
      <stop offset="100%" style="stop-color:#424242;stop-opacity:1" />
    </linearGradient>
    
    <radialGradient id="shieldGlow" cx="50%" cy="50%" r="50%">
      <stop offset="0%" style="stop-color:#9C27B0;stop-opacity:0.3" />
      <stop offset="100%" style="stop-color:#9C27B0;stop-opacity:0" />
    </radialGradient>
  </defs>
  
  <!-- 保护光环 -->
  <circle cx="12" cy="12" r="11" fill="url(#shieldGlow)">
    <animate attributeName="r" values="10;12;10" dur="3s" repeatCount="indefinite"/>
    <animate attributeName="opacity" values="0.3;0.1;0.3" dur="3s" repeatCount="indefinite"/>
  </circle>
  
  <!-- 锁环/U型环 -->
  <path d="M 8 10 
           C 8 6, 10 4, 12 4
           C 14 4, 16 6, 16 10
           L 16 12" 
        fill="none" 
        stroke="url(#shackleGradient)" 
        stroke-width="2.5" 
        stroke-linecap="round">
    <animate attributeName="stroke-width" 
             values="2.5;3;2.5" 
             dur="2s" 
             repeatCount="indefinite"/>
  </path>
  
  <!-- 锁体 -->
  <rect x="7" y="11" width="10" height="8" rx="2" 
        fill="url(#lockGradient)" 
        stroke="#7B1FA2" 
        stroke-width="0.5">
    <animate attributeName="y" 
             values="11;10.8;11" 
             dur="2s" 
             repeatCount="indefinite"/>
  </rect>
  
  <!-- 锁孔 -->
  <circle cx="12" cy="15" r="1.5" fill="#4A148C">
    <animate attributeName="r" 
             values="1.5;1.8;1.5" 
             dur="2s" 
             repeatCount="indefinite"/>
  </circle>
  
  <!-- 钥匙孔下方凹槽 -->
  <rect x="11.5" y="16" width="1" height="2" rx="0.5" fill="#4A148C"/>
  
  <!-- 小星星安全指示器 -->
  <g opacity="0.8">
    <path d="M 5 8 L 6 10 L 8 9 L 6 11 L 5 13 L 4 11 L 2 9 L 4 10 Z" fill="#FFD700">
      <animate attributeName="opacity" values="0;1;0" dur="2s" repeatCount="indefinite"/>
      <animateTransform attributeName="transform" 
                        type="rotate" 
                        values="0 5 10;360 5 10" 
                        dur="4s" 
                        repeatCount="indefinite"/>
    </path>
    
    <path d="M 19 8 L 20 10 L 22 9 L 20 11 L 19 13 L 18 11 L 16 9 L 18 10 Z" fill="#4CAF50">
      <animate attributeName="opacity" values="0;1;0" dur="2.5s" begin="0.5s" repeatCount="indefinite"/>
      <animateTransform attributeName="transform" 
                        type="rotate" 
                        values="0 19 10;-360 19 10" 
                        dur="5s" 
                        repeatCount="indefinite"/>
    </path>
  </g>
  
  <!-- 安全盾牌装饰 -->
  <path d="M 12 20 
           L 8 18 
           Q 8 16, 12 16
           Q 16 16, 16 18
           L 12 20 Z" 
        fill="rgba(156, 39, 176, 0.2)" 
        stroke="#9C27B0" 
        stroke-width="0.5">
    <animate attributeName="opacity" 
             values="0.4;0.8;0.4" 
             dur="3s" 
             repeatCount="indefinite"/>
  </path>
  
  <!-- 光点效果 -->
  <circle cx="9" cy="13" r="0.5" fill="#E1BEE7">
    <animate attributeName="opacity" values="0.5;1;0.5" dur="1.5s" repeatCount="indefinite"/>
  </circle>
  <circle cx="15" cy="13" r="0.5" fill="#E1BEE7">
    <animate attributeName="opacity" values="0.5;1;0.5" dur="1.5s" begin="0.7s" repeatCount="indefinite"/>
  </circle>
</svg> 