<?xml version="1.0" encoding="UTF-8"?>
<svg width="36" height="36" viewBox="0 0 36 36" xmlns="http://www.w3.org/2000/svg">
  <defs>
    <radialGradient id="trophyGradient" cx="30%" cy="30%" r="70%">
      <stop offset="0%" style="stop-color:#FFF59D;stop-opacity:1" />
      <stop offset="40%" style="stop-color:#FFD700;stop-opacity:1" />
      <stop offset="80%" style="stop-color:#FF8F00;stop-opacity:1" />
      <stop offset="100%" style="stop-color:#E65100;stop-opacity:1" />
    </radialGradient>
    
    <linearGradient id="ribbonGradient" x1="0%" y1="0%" x2="100%" y2="100%">
      <stop offset="0%" style="stop-color:#FF4081;stop-opacity:1" />
      <stop offset="100%" style="stop-color:#E91E63;stop-opacity:1" />
    </linearGradient>
    
    <radialGradient id="medalGradient" cx="40%" cy="30%" r="60%">
      <stop offset="0%" style="stop-color:#FFAB40;stop-opacity:1" />
      <stop offset="60%" style="stop-color:#FF7043;stop-opacity:1" />
      <stop offset="100%" style="stop-color:#D84315;stop-opacity:1" />
    </radialGradient>
    
    <radialGradient id="glowAura" cx="50%" cy="50%" r="60%">
      <stop offset="0%" style="stop-color:#FFD700;stop-opacity:0.6" />
      <stop offset="100%" style="stop-color:#FFD700;stop-opacity:0" />
    </radialGradient>
  </defs>
  
  <!-- 光环效果 -->
  <circle cx="18" cy="18" r="16" fill="url(#glowAura)">
    <animate attributeName="r" values="14;18;14" dur="3s" repeatCount="indefinite"/>
    <animate attributeName="opacity" values="0.4;0.1;0.4" dur="3s" repeatCount="indefinite"/>
  </circle>
  
  <!-- 奖杯底座 -->
  <ellipse cx="18" cy="30" rx="8" ry="2" fill="#8D6E63" opacity="0.8"/>
  
  <!-- 奖杯基座 -->
  <rect x="14" y="26" width="8" height="4" rx="1" fill="#A1887F" stroke="#8D6E63" stroke-width="0.5">
    <animate attributeName="y" values="26;25.8;26" dur="2s" repeatCount="indefinite"/>
  </rect>
  
  <!-- 奖杯杆 -->
  <rect x="16.5" y="22" width="3" height="4" fill="#8D6E63">
    <animate attributeName="height" values="4;4.2;4" dur="2s" repeatCount="indefinite"/>
  </rect>
  
  <!-- 奖杯主体 -->
  <path d="M 12 12 
           Q 10 14, 10 18
           Q 10 22, 18 22
           Q 26 22, 26 18
           Q 26 14, 24 12
           L 12 12 Z" 
        fill="url(#trophyGradient)" 
        stroke="#FF8F00" 
        stroke-width="0.8">
    <animate attributeName="fill" 
             values="url(#trophyGradient);#FFFF8D;url(#trophyGradient)" 
             dur="2.5s" 
             repeatCount="indefinite"/>
  </path>
  
  <!-- 奖杯手柄左 -->
  <path d="M 10 16 Q 6 16, 6 18 Q 6 20, 10 20" 
        fill="none" 
        stroke="url(#trophyGradient)" 
        stroke-width="2" 
        stroke-linecap="round">
    <animate attributeName="stroke-width" values="2;2.5;2" dur="2s" repeatCount="indefinite"/>
  </path>
  
  <!-- 奖杯手柄右 -->
  <path d="M 26 16 Q 30 16, 30 18 Q 30 20, 26 20" 
        fill="none" 
        stroke="url(#trophyGradient)" 
        stroke-width="2" 
        stroke-linecap="round">
    <animate attributeName="stroke-width" values="2;2.5;2" dur="2s" begin="0.3s" repeatCount="indefinite"/>
  </path>
  
  <!-- 奖杯装饰 -->
  <ellipse cx="18" cy="17" rx="6" ry="3" fill="#FFAB40" opacity="0.7">
    <animate attributeName="opacity" values="0.7;0.9;0.7" dur="2s" repeatCount="indefinite"/>
  </ellipse>
  
  <!-- 第一名标志 -->
  <circle cx="18" cy="17" r="3" fill="white" stroke="#FF8F00" stroke-width="1">
    <animate attributeName="r" values="3;3.3;3" dur="2s" repeatCount="indefinite"/>
  </circle>
  
  <text x="18" y="20" text-anchor="middle" font-size="8" fill="#FF8F00" font-weight="bold">1</text>
  
  <!-- 飘带左 -->
  <g transform="translate(8, 8)">
    <path d="M 0 0 Q 2 2, 0 6 Q -2 8, 0 10 Q 1 12, -1 14" 
          fill="none" 
          stroke="url(#ribbonGradient)" 
          stroke-width="3" 
          stroke-linecap="round">
      <animate attributeName="d" 
               values="M 0 0 Q 2 2, 0 6 Q -2 8, 0 10 Q 1 12, -1 14;
                       M 0 0 Q 3 2, 1 6 Q -1 8, 1 10 Q 2 12, 0 14;
                       M 0 0 Q 2 2, 0 6 Q -2 8, 0 10 Q 1 12, -1 14" 
               dur="3s" 
               repeatCount="indefinite"/>
    </path>
  </g>
  
  <!-- 飘带右 -->
  <g transform="translate(28, 8)">
    <path d="M 0 0 Q -2 2, 0 6 Q 2 8, 0 10 Q -1 12, 1 14" 
          fill="none" 
          stroke="url(#ribbonGradient)" 
          stroke-width="3" 
          stroke-linecap="round">
      <animate attributeName="d" 
               values="M 0 0 Q -2 2, 0 6 Q 2 8, 0 10 Q -1 12, 1 14;
                       M 0 0 Q -3 2, -1 6 Q 1 8, -1 10 Q -2 12, 0 14;
                       M 0 0 Q -2 2, 0 6 Q 2 8, 0 10 Q -1 12, 1 14" 
               dur="3s" 
               begin="0.5s"
               repeatCount="indefinite"/>
    </path>
  </g>
  
  <!-- 成就勋章1 -->
  <g transform="translate(28, 24)">
    <circle cx="0" cy="0" r="3" fill="url(#medalGradient)" stroke="#BF360C" stroke-width="0.5">
      <animate attributeName="r" values="3;3.5;3" dur="2s" repeatCount="indefinite"/>
    </circle>
    <path d="M -1.5 -1.5 L 0 0.5 L 1.5 -1.5 L 0.5 0 L 1.5 1.5 L 0 -0.5 L -1.5 1.5 L -0.5 0 Z" 
          fill="#FFD54F"/>
  </g>
  
  <!-- 成就勋章2 -->
  <g transform="translate(8, 24)">
    <circle cx="0" cy="0" r="2.5" fill="#E1BEE7" stroke="#9C27B0" stroke-width="0.5">
      <animate attributeName="r" values="2.5;3;2.5" dur="2.2s" begin="0.3s" repeatCount="indefinite"/>
    </circle>
    <circle cx="0" cy="0" r="1.5" fill="#BA68C8"/>
  </g>
  
  <!-- 闪烁星星 -->
  <g opacity="0.8">
    <path d="M 32 12 L 33 14 L 35 13 L 33 15 L 32 17 L 31 15 L 29 13 L 31 14 Z" fill="#FFD700">
      <animate attributeName="opacity" values="0;1;0" dur="2s" repeatCount="indefinite"/>
      <animateTransform attributeName="transform" 
                        type="rotate" 
                        values="0 32 14;360 32 14" 
                        dur="4s" 
                        repeatCount="indefinite"/>
    </path>
    
    <path d="M 4 12 L 5 14 L 7 13 L 5 15 L 4 17 L 3 15 L 1 13 L 3 14 Z" fill="#4CAF50">
      <animate attributeName="opacity" values="0;1;0" dur="2.5s" begin="0.5s" repeatCount="indefinite"/>
      <animateTransform attributeName="transform" 
                        type="rotate" 
                        values="0 4 14;-360 4 14" 
                        dur="5s" 
                        repeatCount="indefinite"/>
    </path>
    
    <path d="M 18 4 L 19 6 L 21 5 L 19 7 L 18 9 L 17 7 L 15 5 L 17 6 Z" fill="#FF4081">
      <animate attributeName="opacity" values="0;1;0" dur="1.8s" begin="1s" repeatCount="indefinite"/>
      <animateTransform attributeName="transform" 
                        type="rotate" 
                        values="0 18 6;360 18 6" 
                        dur="3s" 
                        repeatCount="indefinite"/>
    </path>
  </g>
  
  <!-- 庆祝气球 -->
  <g opacity="0.7">
    <ellipse cx="6" cy="6" rx="2" ry="3" fill="#FF80AB">
      <animate attributeName="cy" values="6;4;6" dur="3s" repeatCount="indefinite"/>
    </ellipse>
    <line x1="6" y1="9" x2="6" y2="12" stroke="#333" stroke-width="0.5"/>
    
    <ellipse cx="30" cy="8" rx="1.8" ry="2.5" fill="#81D4FA">
      <animate attributeName="cy" values="8;6;8" dur="3.2s" begin="0.5s" repeatCount="indefinite"/>
    </ellipse>
    <line x1="30" y1="10.5" x2="30" y2="13" stroke="#333" stroke-width="0.5"/>
  </g>
</svg> 