<?xml version="1.0" encoding="UTF-8"?>
<svg width="36" height="36" viewBox="0 0 36 36" xmlns="http://www.w3.org/2000/svg">
  <defs>
    <radialGradient id="gearGradient" cx="40%" cy="30%" r="70%">
      <stop offset="0%" style="stop-color:#FFE082;stop-opacity:1" />
      <stop offset="50%" style="stop-color:#FFB74D;stop-opacity:1" />
      <stop offset="100%" style="stop-color:#FF8F00;stop-opacity:1" />
    </radialGradient>
    
    <radialGradient id="centerGradient" cx="30%" cy="30%" r="60%">
      <stop offset="0%" style="stop-color:#FF4081;stop-opacity:1" />
      <stop offset="100%" style="stop-color:#E91E63;stop-opacity:1" />
    </radialGradient>
    
    <linearGradient id="smallGearGradient" x1="0%" y1="0%" x2="100%" y2="100%">
      <stop offset="0%" style="stop-color:#E1BEE7;stop-opacity:1" />
      <stop offset="100%" style="stop-color:#9C27B0;stop-opacity:1" />
    </linearGradient>
    
    <radialGradient id="sparkleGradient" cx="50%" cy="50%" r="50%">
      <stop offset="0%" style="stop-color:#FFD700;stop-opacity:1" />
      <stop offset="100%" style="stop-color:#FFA000;stop-opacity:1" />
    </radialGradient>
    
    <radialGradient id="backgroundGlow" cx="50%" cy="50%" r="60%">
      <stop offset="0%" style="stop-color:#FF8A80;stop-opacity:0.3" />
      <stop offset="100%" style="stop-color:#FF8A80;stop-opacity:0" />
    </radialGradient>
  </defs>
  
  <!-- 背景光晕 -->
  <circle cx="18" cy="18" r="16" fill="url(#backgroundGlow)">
    <animate attributeName="r" values="14;18;14" dur="4s" repeatCount="indefinite"/>
    <animate attributeName="opacity" values="0.3;0.1;0.3" dur="4s" repeatCount="indefinite"/>
  </circle>
  
  <!-- 主齿轮 -->
  <g transform-origin="18 18">
    <animateTransform attributeName="transform" 
                      type="rotate" 
                      values="0 18 18;360 18 18" 
                      dur="8s" 
                      repeatCount="indefinite"/>
    
    <!-- 齿轮外圈 -->
    <path d="M 18 6 
             L 20 8 L 22 6 L 24 8 L 26 6 L 28 8 L 30 12 
             L 28 14 L 30 16 L 28 18 L 30 20 L 28 22 L 30 24 
             L 28 26 L 26 30 L 24 28 L 22 30 L 20 28 L 18 30 
             L 16 28 L 14 30 L 12 28 L 10 30 L 8 28 L 6 24 
             L 8 22 L 6 20 L 8 18 L 6 16 L 8 14 L 6 12 
             L 8 10 L 10 6 L 12 8 L 14 6 L 16 8 Z" 
          fill="url(#gearGradient)" 
          stroke="#E65100" 
          stroke-width="0.5">
      <animate attributeName="fill" 
               values="url(#gearGradient);#FFCC02;url(#gearGradient)" 
               dur="3s" 
               repeatCount="indefinite"/>
    </path>
    
    <!-- 齿轮内圈 -->
    <circle cx="18" cy="18" r="8" fill="url(#gearGradient)" stroke="#FF8F00" stroke-width="1">
      <animate attributeName="r" values="8;8.5;8" dur="2s" repeatCount="indefinite"/>
    </circle>
    
    <!-- 齿轮中心孔 -->
    <circle cx="18" cy="18" r="4" fill="url(#centerGradient)" stroke="#AD1457" stroke-width="1">
      <animate attributeName="r" values="4;4.3;4" dur="2.5s" repeatCount="indefinite"/>
    </circle>
    
    <!-- 中心装饰 -->
    <circle cx="18" cy="18" r="2.5" fill="#F8BBD0" stroke="#E91E63" stroke-width="0.5"/>
    <circle cx="18" cy="18" r="1.5" fill="#FF4081">
      <animate attributeName="r" values="1.5;2;1.5" dur="1.8s" repeatCount="indefinite"/>
    </circle>
  </g>
  
  <!-- 小齿轮1 -->
  <g transform="translate(8, 8)" transform-origin="0 0">
    <animateTransform attributeName="transform" 
                      type="rotate" 
                      values="0 0 0;-360 0 0" 
                      dur="6s" 
                      repeatCount="indefinite"/>
    
    <path d="M 0 -4 L 1 -2 L 4 -3 L 3 0 L 4 3 L 1 2 L 0 4 L -1 2 L -4 3 L -3 0 L -4 -3 L -1 -2 Z" 
          fill="url(#smallGearGradient)" 
          stroke="#7B1FA2" 
          stroke-width="0.3"/>
    
    <circle cx="0" cy="0" r="2" fill="url(#smallGearGradient)" stroke="#7B1FA2" stroke-width="0.3">
      <animate attributeName="r" values="2;2.2;2" dur="2s" repeatCount="indefinite"/>
    </circle>
    
    <circle cx="0" cy="0" r="1" fill="#E1BEE7"/>
  </g>
  
  <!-- 小齿轮2 -->
  <g transform="translate(28, 28)" transform-origin="0 0">
    <animateTransform attributeName="transform" 
                      type="rotate" 
                      values="0 0 0;360 0 0" 
                      dur="5s" 
                      repeatCount="indefinite"/>
    
    <path d="M 0 -3 L 1 -1.5 L 3 -2 L 2 0 L 3 2 L 1 1.5 L 0 3 L -1 1.5 L -3 2 L -2 0 L -3 -2 L -1 -1.5 Z" 
          fill="#81C784" 
          stroke="#4CAF50" 
          stroke-width="0.3"/>
    
    <circle cx="0" cy="0" r="1.5" fill="#81C784" stroke="#4CAF50" stroke-width="0.3">
      <animate attributeName="r" values="1.5;1.7;1.5" dur="2.3s" repeatCount="indefinite"/>
    </circle>
    
    <circle cx="0" cy="0" r="0.8" fill="#C8E6C9"/>
  </g>
  
  <!-- 工具扳手 -->
  <g opacity="0.9">
    <path d="M 6 26 L 8 24 L 12 28 L 14 30 L 12 32 L 10 30 Z" 
          fill="#FF4081" 
          stroke="#E91E63" 
          stroke-width="0.5">
      <animate attributeName="fill" values="#FF4081;#FF80AB;#FF4081" dur="2s" repeatCount="indefinite"/>
    </path>
    
    <path d="M 8 24 L 10 22 L 12 24 L 10 26 Z" 
          fill="#FF8A80" 
          stroke="#FF5722" 
          stroke-width="0.3"/>
  </g>
  
  <!-- 螺丝刀 -->
  <g opacity="0.9">
    <rect x="29" y="6" width="1.5" height="8" rx="0.3" fill="#FFB74D" 
          transform="rotate(45 29.75 10)">
      <animate attributeName="fill" values="#FFB74D;#FFCC02;#FFB74D" dur="2.5s" repeatCount="indefinite"/>
    </rect>
    
    <rect x="29" y="14" width="1.5" height="3" rx="0.5" fill="#8D6E63" 
          transform="rotate(45 29.75 15.5)"/>
  </g>
  
  <!-- 闪烁火花 -->
  <g opacity="0.8">
    <circle cx="12" cy="12" r="1" fill="url(#sparkleGradient)">
      <animate attributeName="opacity" values="0;1;0" dur="1.5s" repeatCount="indefinite"/>
      <animate attributeName="r" values="0.5;1.5;0.5" dur="1.5s" repeatCount="indefinite"/>
    </circle>
    
    <circle cx="24" cy="12" r="0.8" fill="#FFD700">
      <animate attributeName="opacity" values="0;1;0" dur="1.8s" begin="0.3s" repeatCount="indefinite"/>
      <animate attributeName="r" values="0.3;1.2;0.3" dur="1.8s" begin="0.3s" repeatCount="indefinite"/>
    </circle>
    
    <circle cx="12" cy="24" r="0.6" fill="#4CAF50">
      <animate attributeName="opacity" values="0;1;0" dur="2s" begin="0.6s" repeatCount="indefinite"/>
      <animate attributeName="r" values="0.2;1;0.2" dur="2s" begin="0.6s" repeatCount="indefinite"/>
    </circle>
    
    <circle cx="24" cy="24" r="0.7" fill="#FF4081">
      <animate attributeName="opacity" values="0;1;0" dur="1.7s" begin="0.9s" repeatCount="indefinite"/>
      <animate attributeName="r" values="0.3;1.1;0.3" dur="1.7s" begin="0.9s" repeatCount="indefinite"/>
    </circle>
  </g>
  
  <!-- 装饰星星 -->
  <g opacity="0.7">
    <path d="M 32 14 L 33 16 L 35 15 L 33 17 L 32 19 L 31 17 L 29 15 L 31 16 Z" fill="#FFD700">
      <animate attributeName="opacity" values="0;1;0" dur="2.2s" repeatCount="indefinite"/>
      <animateTransform attributeName="transform" 
                        type="rotate" 
                        values="0 32 16;360 32 16" 
                        dur="5s" 
                        repeatCount="indefinite"/>
    </path>
    
    <path d="M 4 14 L 5 16 L 7 15 L 5 17 L 4 19 L 3 17 L 1 15 L 3 16 Z" fill="#E91E63">
      <animate attributeName="opacity" values="0;1;0" dur="2.5s" begin="0.5s" repeatCount="indefinite"/>
      <animateTransform attributeName="transform" 
                        type="rotate" 
                        values="0 4 16;-360 4 16" 
                        dur="6s" 
                        repeatCount="indefinite"/>
    </path>
  </g>
  
  <!-- 进度指示器 -->
  <g opacity="0.6">
    <circle cx="18" cy="32" r="1.5" fill="#FF4081">
      <animate attributeName="r" values="1.5;2;1.5" dur="2s" repeatCount="indefinite"/>
      <animate attributeName="fill" values="#FF4081;#FF80AB;#FF4081" dur="2s" repeatCount="indefinite"/>
    </circle>
    <circle cx="14" cy="32" r="1" fill="#FFB74D">
      <animate attributeName="r" values="1;1.3;1" dur="2s" begin="0.3s" repeatCount="indefinite"/>
    </circle>
    <circle cx="22" cy="32" r="1" fill="#81C784">
      <animate attributeName="r" values="1;1.3;1" dur="2s" begin="0.6s" repeatCount="indefinite"/>
    </circle>
  </g>
</svg> 