<?xml version="1.0" encoding="UTF-8"?>
<svg width="36" height="36" viewBox="0 0 36 36" xmlns="http://www.w3.org/2000/svg">
  <defs>
    <radialGradient id="infoGradient" cx="30%" cy="30%" r="70%">
      <stop offset="0%" style="stop-color:#E1F5FE;stop-opacity:1" />
      <stop offset="50%" style="stop-color:#81D4FA;stop-opacity:1" />
      <stop offset="100%" style="stop-color:#0288D1;stop-opacity:1" />
    </radialGradient>
    
    <linearGradient id="heartGradient" x1="0%" y1="0%" x2="100%" y2="100%">
      <stop offset="0%" style="stop-color:#FF4081;stop-opacity:1" />
      <stop offset="100%" style="stop-color:#E91E63;stop-opacity:1" />
    </linearGradient>
    
    <radialGradient id="glowEffect" cx="50%" cy="50%" r="60%">
      <stop offset="0%" style="stop-color:#81D4FA;stop-opacity:0.4" />
      <stop offset="100%" style="stop-color:#81D4FA;stop-opacity:0" />
    </radialGradient>
    
    <radialGradient id="bookGradient" cx="40%" cy="30%" r="70%">
      <stop offset="0%" style="stop-color:#FFF59D;stop-opacity:1" />
      <stop offset="60%" style="stop-color:#FFD54F;stop-opacity:1" />
      <stop offset="100%" style="stop-color:#FF8F00;stop-opacity:1" />
    </radialGradient>
  </defs>
  
  <!-- 光环效果 -->
  <circle cx="18" cy="18" r="16" fill="url(#glowEffect)">
    <animate attributeName="r" values="14;18;14" dur="3s" repeatCount="indefinite"/>
    <animate attributeName="opacity" values="0.4;0.1;0.4" dur="3s" repeatCount="indefinite"/>
  </circle>
  
  <!-- 信息圆圈 -->
  <circle cx="18" cy="18" r="12" fill="url(#infoGradient)" stroke="#0277BD" stroke-width="1">
    <animate attributeName="r" values="12;12.5;12" dur="2s" repeatCount="indefinite"/>
  </circle>
  
  <!-- 内圆装饰 -->
  <circle cx="18" cy="18" r="9" fill="none" stroke="#4FC3F7" stroke-width="0.5" opacity="0.7">
    <animate attributeName="opacity" values="0.7;0.9;0.7" dur="2s" repeatCount="indefinite"/>
  </circle>
  
  <!-- 感叹号主体 -->
  <rect x="16.5" y="12" width="3" height="8" rx="1.5" fill="white">
    <animate attributeName="height" values="8;8.5;8" dur="2s" repeatCount="indefinite"/>
  </rect>
  
  <!-- 感叹号点 -->
  <circle cx="18" cy="23" r="1.5" fill="white">
    <animate attributeName="r" values="1.5;2;1.5" dur="2s" repeatCount="indefinite"/>
  </circle>
  
  <!-- 小书本图标 -->
  <g transform="translate(6, 6)" opacity="0.8">
    <rect x="0" y="0" width="8" height="6" rx="1" fill="url(#bookGradient)" stroke="#FF8F00" stroke-width="0.3">
      <animate attributeName="width" values="8;8.5;8" dur="2.3s" repeatCount="indefinite"/>
    </rect>
    
    <!-- 书页 -->
    <line x1="1" y1="2" x2="7" y2="2" stroke="#FF8F00" stroke-width="0.3"/>
    <line x1="1" y1="3.5" x2="7" y2="3.5" stroke="#FF8F00" stroke-width="0.3"/>
    <line x1="1" y1="5" x2="5" y2="5" stroke="#FF8F00" stroke-width="0.3"/>
  </g>
  
  <!-- 小心型 -->
  <g transform="translate(22, 22)" opacity="0.9">
    <path d="M 4 2 
             C 2 0, 0 0, 0 2
             C 0 4, 4 8, 4 8
             C 4 8, 8 4, 8 2
             C 8 0, 6 0, 4 2 Z" 
          fill="url(#heartGradient)" 
          stroke="#AD1457" 
          stroke-width="0.2">
      <animate attributeName="fill" values="url(#heartGradient);#FF80AB;url(#heartGradient)" dur="2.5s" repeatCount="indefinite"/>
      <animateTransform attributeName="transform" 
                        type="scale" 
                        values="1;1.1;1" 
                        dur="2.5s" 
                        repeatCount="indefinite"/>
    </path>
  </g>
  
  <!-- 小灯泡图标 -->
  <g transform="translate(28, 8)" opacity="0.8">
    <ellipse cx="0" cy="0" rx="2.5" ry="3" fill="#FFD54F" stroke="#FFA000" stroke-width="0.3">
      <animate attributeName="fill" values="#FFD54F;#FFFF8D;#FFD54F" dur="2s" repeatCount="indefinite"/>
    </ellipse>
    
    <!-- 灯泡底座 -->
    <rect x="-1" y="2.5" width="2" height="1" rx="0.5" fill="#8D6E63"/>
    
    <!-- 闪烁效果 -->
    <path d="M -1 -2 L 0 -1 L -2 0 Z" fill="#FFFF8D" opacity="0.7">
      <animate attributeName="opacity" values="0.7;0.3;0.7" dur="1.5s" repeatCount="indefinite"/>
    </path>
    <path d="M 1 -1 L 2 0 L 1 1 Z" fill="#FFFF8D" opacity="0.5">
      <animate attributeName="opacity" values="0.5;0.2;0.5" dur="1.8s" begin="0.3s" repeatCount="indefinite"/>
    </path>
  </g>
  
  <!-- 问号 -->
  <g transform="translate(8, 26)" opacity="0.7">
    <path d="M 0 0 
             C 0 -1, 1 -2, 2 -2
             C 3 -2, 4 -1, 4 0
             C 4 1, 3 1.5, 2 2
             L 2 3" 
          fill="none" 
          stroke="#4FC3F7" 
          stroke-width="0.8" 
          stroke-linecap="round">
      <animate attributeName="stroke" values="#4FC3F7;#81D4FA;#4FC3F7" dur="2s" repeatCount="indefinite"/>
    </path>
    
    <circle cx="2" cy="4.5" r="0.3" fill="#4FC3F7">
      <animate attributeName="fill" values="#4FC3F7;#81D4FA;#4FC3F7" dur="2s" repeatCount="indefinite"/>
    </circle>
  </g>
  
  <!-- 漂浮星星 -->
  <g opacity="0.7">
    <path d="M 32 18 L 33 20 L 35 19 L 33 21 L 32 23 L 31 21 L 29 19 L 31 20 Z" fill="#FFD700">
      <animate attributeName="opacity" values="0;1;0" dur="2s" repeatCount="indefinite"/>
      <animateTransform attributeName="transform" 
                        type="rotate" 
                        values="0 32 20;360 32 20" 
                        dur="4s" 
                        repeatCount="indefinite"/>
    </path>
    
    <path d="M 4 18 L 5 20 L 7 19 L 5 21 L 4 23 L 3 21 L 1 19 L 3 20 Z" fill="#4CAF50">
      <animate attributeName="opacity" values="0;1;0" dur="2.3s" begin="0.5s" repeatCount="indefinite"/>
      <animateTransform attributeName="transform" 
                        type="rotate" 
                        values="0 4 20;-360 4 20" 
                        dur="5s" 
                        repeatCount="indefinite"/>
    </path>
    
    <path d="M 18 4 L 19 6 L 21 5 L 19 7 L 18 9 L 17 7 L 15 5 L 17 6 Z" fill="#FF4081">
      <animate attributeName="opacity" values="0;1;0" dur="1.8s" begin="1s" repeatCount="indefinite"/>
      <animateTransform attributeName="transform" 
                        type="rotate" 
                        values="0 18 6;360 18 6" 
                        dur="3s" 
                        repeatCount="indefinite"/>
    </path>
  </g>
  
  <!-- 信息流动效果 -->
  <g opacity="0.6">
    <circle cx="12" cy="8" r="0.5" fill="#81D4FA">
      <animate attributeName="cy" values="8;28;8" dur="3s" repeatCount="indefinite"/>
      <animate attributeName="opacity" values="0.6;0.2;0.6" dur="3s" repeatCount="indefinite"/>
    </circle>
    
    <circle cx="24" cy="10" r="0.8" fill="#4FC3F7">
      <animate attributeName="cy" values="10;30;10" dur="3.5s" begin="0.5s" repeatCount="indefinite"/>
      <animate attributeName="opacity" values="0.6;0.2;0.6" dur="3.5s" begin="0.5s" repeatCount="indefinite"/>
    </circle>
    
    <circle cx="6" cy="12" r="0.6" fill="#FFD54F">
      <animate attributeName="cy" values="12;32;12" dur="4s" begin="1s" repeatCount="indefinite"/>
      <animate attributeName="opacity" values="0.6;0.2;0.6" dur="4s" begin="1s" repeatCount="indefinite"/>
    </circle>
  </g>
</svg> 